# xmcd
#
# Track frame offsets:
# 183
# 6333
# 17588
# 31266
# 42648
# 52413
# 62483
# 69615
# 77574
# 86709
# 94881
# 107117
# 114961
# 130161
# 137736
# 152131
# 160828
# 169175
# 180568
#
# Disc length: 2567 seconds
#
#
# Revision: 4
# Processed by: cddbd v1.5.1PL0 Copyright (c) Steve Scherf et al.
# Submitted via: FreeRIP 2.90 
#
DISCID=fe0a0513
DTITLE=Jim Reeves - Radio Days
DYEAR=1900
DGENRE=Country
TTITLE0=Have I Told You Lately That I Love You
TTITLE1=Just Call Me Lonesome
TTITLE2=How's The World Treating You
TTITLE3=If Heartaches Is The Fashion
TTITLE4=Home
TTITLE5=Dear Hearts And Gentle People
TTITLE6=I'm Beginning To Forget You
TTITLE7=Roly Poly
TTITLE8=The Wind Up
TTITLE9=Sweet Evening Breeze
TTITLE10=Your Old Love Letters
TTITLE11=Till The End Of The World
TTITLE12=Making Believe
TTITLE13=The Oklahoma Hills
TTITLE14=The Highway To Nowhere
TTITLE15=If You Were Mine
TTITLE16=Everywhere You Go
TTITLE17=I Love You More
TTITLE18=I've Lived A Lot In My Time
EXTD=
EXTT0=
EXTT1=
EXTT2=
EXTT3=
EXTT4=
EXTT5=
EXTT6=
EXTT7=
EXTT8=
EXTT9=
EXTT10=
EXTT11=
EXTT12=
EXTT13=
EXTT14=
EXTT15=
EXTT16=
EXTT17=
EXTT18=
PLAYORDER=
